<svg xmlns="http://www.w3.org/2000/svg">
	<symbol viewBox="0 0 32 32" id="home">
		<path fill-rule="evenodd" clip-rule="evenodd" d="M17.0707 4.29569L27.4459 12.4985V25.4905C27.4459 27.1219 26.1234 28.4443 24.492 28.4443H20.4325V28.4445H18.2171H14.3972H12.1818V28.4443H8.12279C6.49143 28.4443 5.16895 27.1219 5.16895 25.4905V12.4985L15.5441 4.29569C15.9915 3.94196 16.6233 3.94196 17.0707 4.29569ZM18.2171 26.2289H14.3972V17.0462H18.2171V26.2289ZM20.4325 26.2289V16.3077C20.4325 15.492 19.7713 14.8308 18.9556 14.8308H13.6587C12.843 14.8308 12.1818 15.492 12.1818 16.3077V26.2289H8.12279C7.71495 26.2289 7.38433 25.8983 7.38433 25.4905V13.5711L16.3074 6.51634L25.2305 13.5711V25.4905C25.2305 25.8983 24.8999 26.2289 24.492 26.2289H20.4325Z" fill="currentColor"/>
	</symbol>

	<symbol viewBox="0 0 33 32" id="filter">
		<path fill-rule="evenodd" clip-rule="evenodd" d="M21.5283 21.2651C25.6294 21.2651 28.954 17.9405 28.954 13.8395C28.954 9.73839 25.6294 6.41381 21.5283 6.41381C17.4273 6.41381 14.1027 9.73839 14.1027 13.8395C14.1027 17.9405 17.4273 21.2651 21.5283 21.2651ZM28.4973 20.8723C30.3078 19.0781 31.4292 16.5897 31.4292 13.8395C31.4292 8.37136 26.9964 3.9386 21.5283 3.9386C16.0602 3.9386 11.6275 8.37136 11.6275 13.8395C11.6275 19.3075 16.0602 23.7403 21.5283 23.7403C23.3553 23.7403 25.0668 23.2454 26.5359 22.3824L29.1382 25.6787C29.5617 26.2152 30.34 26.3067 30.8764 25.8832C31.4129 25.4597 31.5045 24.6814 31.0809 24.1449L28.4973 20.8723ZM1.64453 7.85746C1.64453 7.17394 2.19863 6.61985 2.88214 6.61985L9.07017 6.61985C9.75368 6.61985 10.3078 7.17394 10.3078 7.85746C10.3078 8.54097 9.75368 9.09506 9.07017 9.09506L2.88214 9.09506C2.19863 9.09506 1.64453 8.54097 1.64453 7.85746ZM1.64453 15.2832C1.64453 14.5997 2.19863 14.0456 2.88214 14.0456H6.59496C7.27847 14.0456 7.83256 14.5997 7.83256 15.2832C7.83256 15.9667 7.27847 16.5208 6.59496 16.5208H2.88214C2.19863 16.5208 1.64453 15.9667 1.64453 15.2832ZM2.88214 21.4713C2.19863 21.4713 1.64453 22.0254 1.64453 22.7089C1.64453 23.3924 2.19863 23.9465 2.88214 23.9465H10.3078C10.9913 23.9465 11.5454 23.3924 11.5454 22.7089C11.5454 22.0254 10.9913 21.4713 10.3078 21.4713H2.88214Z" fill="currentColor"/>
	</symbol>

	<symbol viewBox="0 0 33 32" id="cart">
		<path fill-rule="evenodd" clip-rule="evenodd" d="M3.77246 4.92303C3.77246 4.23952 4.32656 3.68542 5.01007 3.68542H7.44876C8.62401 3.68542 9.63628 4.51403 9.86848 5.66611L10.4615 8.6085H25.3178C27.0888 8.6085 28.5246 10.0443 28.5246 11.8153V15.993C28.5246 17.5162 27.4532 18.8292 25.9609 19.1347L14.0814 21.5667C12.2091 21.95 10.3816 20.7396 10.004 18.8661L7.44317 6.16064H5.01007C4.32656 6.16064 3.77246 5.60654 3.77246 4.92303ZM10.9604 11.0837L12.4304 18.3771C12.5373 18.9076 13.0548 19.2503 13.585 19.1418L25.4645 16.7098C25.8049 16.6401 26.0494 16.3405 26.0494 15.993V11.8153C26.0494 11.4113 25.7218 11.0837 25.3178 11.0837H10.9604ZM25.3017 26.1457C25.3017 27.3988 24.2859 28.4147 23.0328 28.4147C21.7796 28.4147 20.7638 27.3988 20.7638 26.1457C20.7638 24.8926 21.7796 23.8768 23.0328 23.8768C24.2859 23.8768 25.3017 24.8926 25.3017 26.1457ZM11.7097 28.4147C12.9628 28.4147 13.9786 27.3988 13.9786 26.1457C13.9786 24.8926 12.9628 23.8768 11.7097 23.8768C10.4566 23.8768 9.44073 24.8926 9.44073 26.1457C9.44073 27.3988 10.4566 28.4147 11.7097 28.4147Z" fill="currentColor"/>
	</symbol>

	<symbol viewBox="0 0 32 32" id="user">
		<path fill-rule="evenodd" clip-rule="evenodd" d="M15.8771 26.0785C18.439 26.0785 20.7748 25.1108 22.5391 23.521C20.8385 21.6093 18.45 20.4442 15.877 20.4442C13.304 20.4442 10.9155 21.6093 9.21491 23.5209C10.9792 25.1107 13.3151 26.0785 15.8771 26.0785ZM19.2982 18.5096C21.1624 19.1151 22.8286 20.2025 24.1685 21.6352C25.2199 20.057 25.8326 18.1615 25.8326 16.1229C25.8326 10.6246 21.3754 6.16735 15.8771 6.16735C10.3788 6.16735 5.9215 10.6246 5.9215 16.1229C5.9215 18.1615 6.53421 20.0569 7.58553 21.6351C8.92546 20.2024 10.5917 19.115 12.4558 18.5095C11.1666 17.4955 10.3386 15.9213 10.3386 14.1538C10.3386 11.095 12.8182 8.61534 15.8771 8.61534C18.9359 8.61534 21.4155 11.095 21.4155 14.1538C21.4155 15.9213 20.5875 17.4955 19.2982 18.5096ZM15.8771 28.5537C22.7424 28.5537 28.3078 22.9882 28.3078 16.1229C28.3078 9.25758 22.7424 3.69214 15.8771 3.69214C9.01173 3.69214 3.44629 9.25758 3.44629 16.1229C3.44629 22.9882 9.01173 28.5537 15.8771 28.5537ZM18.9403 14.1538C18.9403 15.8456 17.5688 17.217 15.8771 17.217C14.1853 17.217 12.8138 15.8456 12.8138 14.1538C12.8138 12.462 14.1853 11.0905 15.8771 11.0905C17.5688 11.0905 18.9403 12.462 18.9403 14.1538Z" fill="currentColor"/>
	</symbol>

	<symbol viewBox="0 0 24 24" id="close">
		<path fill-rule="evenodd" clip-rule="evenodd" d="M13.4142 12.0002L17.7072 7.70725C18.0982 7.31625 18.0982 6.68425 17.7072 6.29325C17.3162 5.90225 16.6842 5.90225 16.2933 6.29325L12.0002 10.5862L7.70725 6.29325C7.31625 5.90225 6.68425 5.90225 6.29325 6.29325C5.90225 6.68425 5.90225 7.31625 6.29325 7.70725L10.5862 12.0002L6.29325 16.2933C5.90225 16.6842 5.90225 17.3162 6.29325 17.7072C6.48825 17.9022 6.74425 18.0002 7.00025 18.0002C7.25625 18.0002 7.51225 17.9022 7.70725 17.7072L12.0002 13.4142L16.2933 17.7072C16.4882 17.9022 16.7443 18.0002 17.0002 18.0002C17.2562 18.0002 17.5122 17.9022 17.7072 17.7072C18.0982 17.3162 18.0982 16.6842 17.7072 16.2933L13.4142 12.0002Z" fill="currentColor"/>
	</symbol>

	<symbol viewBox="0 0 16 16" id="like">
		<path d="M2 6.82278L2.49814 6.77971C2.47507 6.51294 2.24595 6.3117 1.97845 6.32324C1.71093 6.33478 1.5 6.55502 1.5 6.82278H2ZM13.4907 8.03824L13.0204 10.758L14.0058 10.9285L14.4761 8.20864L13.4907 8.03824ZM8.83 14.1666H5.7309V15.1666H8.83V14.1666ZM5.12332 13.6083L4.58188 7.34651L3.5856 7.43264L4.12704 13.6944L5.12332 13.6083ZM13.0204 10.758C12.6825 12.7118 10.9209 14.1666 8.83 14.1666V15.1666C11.3808 15.1666 13.5805 13.3873 14.0058 10.9285L13.0204 10.758ZM8.83653 3.40008L8.39473 6.09646L9.3816 6.25814L9.8234 3.56177L8.83653 3.40008ZM4.79182 6.83038L5.75098 6.00388L5.09819 5.24634L4.13903 6.07286L4.79182 6.83038ZM7.496 3.31468L7.81313 2.09212L6.8452 1.84102L6.52805 3.06359L7.496 3.31468ZM8.29213 1.85225L8.3888 1.8833L8.69467 0.931223L8.598 0.900176L8.29213 1.85225ZM7.01567 4.54397C7.2236 4.15463 7.38513 3.74224 7.496 3.31468L6.52805 3.06359C6.43715 3.41402 6.30466 3.7526 6.13361 4.0728L7.01567 4.54397ZM8.3888 1.8833C8.59307 1.94892 8.73813 2.1067 8.7858 2.29054L9.7538 2.03945C9.6168 1.51144 9.21267 1.09763 8.69467 0.931223L8.3888 1.8833ZM7.81313 2.09212C7.83653 2.00211 7.90153 1.9194 7.99987 1.872L7.56573 0.971143C7.21107 1.14204 6.94467 1.45749 6.8452 1.84102L7.81313 2.09212ZM7.99987 1.872C8.08967 1.82872 8.1954 1.82118 8.29213 1.85225L8.598 0.900176C8.2582 0.79101 7.88747 0.81611 7.56573 0.971143L7.99987 1.872ZM9.4358 7.32278H12.8899V6.32278H9.4358V7.32278ZM3.14587 14.2707L2.49814 6.77971L1.50186 6.86584L2.14959 14.3568L3.14587 14.2707ZM2.5 14.3418V6.82278H1.5V14.3418H2.5ZM2.14959 14.3568C2.1408 14.2552 2.22097 14.1666 2.32447 14.1666V15.1666C2.80845 15.1666 3.18748 14.7519 3.14587 14.2707L2.14959 14.3568ZM9.8234 3.56177C9.9064 3.05502 9.88273 2.5365 9.7538 2.03945L8.7858 2.29054C8.8798 2.6528 8.89707 3.03072 8.83653 3.40008L9.8234 3.56177ZM5.7309 14.1666C5.41496 14.1666 5.15067 13.9246 5.12332 13.6083L4.12704 13.6944C4.19901 14.5268 4.89513 15.1666 5.7309 15.1666V14.1666ZM5.75098 6.00388C6.20421 5.61331 6.6928 5.14842 7.01567 4.54397L6.13361 4.0728C5.90269 4.50509 5.535 4.86993 5.09819 5.24634L5.75098 6.00388ZM14.4761 8.20864C14.6463 7.22431 13.8894 6.32278 12.8899 6.32278V7.32278C13.2676 7.32278 13.5555 7.66391 13.4907 8.03824L14.4761 8.20864ZM2.32447 14.1666C2.42195 14.1666 2.5 14.2456 2.5 14.3418H1.5C1.5 14.7968 1.86859 15.1666 2.32447 15.1666V14.1666ZM8.39473 6.09646C8.2896 6.73838 8.7844 7.32278 9.4358 7.32278V6.32278C9.40253 6.32278 9.37593 6.29265 9.3816 6.25814L8.39473 6.09646ZM4.58188 7.34651C4.56493 7.15051 4.64317 6.95851 4.79182 6.83038L4.13903 6.07286C3.74681 6.41085 3.54099 6.91684 3.5856 7.43264L4.58188 7.34651Z" fill="currentColor"/>
	</symbol>

	<symbol viewBox="0 0 16 16" id="dislike">
		<path d="M2 9.17724L2.49814 9.22031C2.47507 9.48711 2.24595 9.68831 1.97845 9.67677C1.71093 9.66524 1.5 9.44497 1.5 9.17724H2ZM13.4907 7.96177L13.0204 5.24194L14.0058 5.07153L14.4761 7.79137L13.4907 7.96177ZM8.83 1.83337H5.7309V0.833374H8.83V1.83337ZM5.12332 2.39173L4.58188 8.65351L3.5856 8.56737L4.12704 2.30559L5.12332 2.39173ZM13.0204 5.24194C12.6825 3.28821 10.9209 1.83337 8.83 1.83337V0.833374C11.3808 0.833374 13.5805 2.61267 14.0058 5.07153L13.0204 5.24194ZM8.83653 12.5999L8.39473 9.90357L9.3816 9.74191L9.8234 12.4382L8.83653 12.5999ZM4.79182 9.16964L5.75098 9.99617L5.09819 10.7537L4.13903 9.92717L4.79182 9.16964ZM7.496 12.6853L7.81313 13.9079L6.8452 14.159L6.52805 12.9364L7.496 12.6853ZM8.29213 14.1478L8.3888 14.1167L8.69467 15.0688L8.598 15.0998L8.29213 14.1478ZM7.01567 11.456C7.2236 11.8454 7.38513 12.2578 7.496 12.6853L6.52805 12.9364C6.43715 12.586 6.30466 12.2474 6.13361 11.9272L7.01567 11.456ZM8.3888 14.1167C8.59307 14.0511 8.73813 13.8933 8.7858 13.7095L9.7538 13.9606C9.6168 14.4886 9.21267 14.9024 8.69467 15.0688L8.3888 14.1167ZM7.81313 13.9079C7.83653 13.9979 7.90153 14.0806 7.99987 14.128L7.56573 15.0289C7.21107 14.858 6.94467 14.5425 6.8452 14.159L7.81313 13.9079ZM7.99987 14.128C8.08967 14.1713 8.1954 14.1788 8.29213 14.1478L8.598 15.0998C8.2582 15.209 7.88747 15.1839 7.56573 15.0289L7.99987 14.128ZM9.4358 8.67724H12.8899V9.67724H9.4358V8.67724ZM3.14587 1.7293L2.49814 9.22031L1.50186 9.13417L2.14959 1.64315L3.14587 1.7293ZM2.5 1.65821V9.17724H1.5V1.65821H2.5ZM2.14959 1.64315C2.1408 1.74485 2.22097 1.83337 2.32447 1.83337V0.833374C2.80845 0.833374 3.18748 1.24811 3.14587 1.7293L2.14959 1.64315ZM9.8234 12.4382C9.9064 12.945 9.88273 13.4635 9.7538 13.9606L8.7858 13.7095C8.8798 13.3472 8.89707 12.9693 8.83653 12.5999L9.8234 12.4382ZM5.7309 1.83337C5.41496 1.83337 5.15067 2.07539 5.12332 2.39173L4.12704 2.30559C4.19901 1.47321 4.89513 0.833374 5.7309 0.833374V1.83337ZM5.75098 9.99617C6.20421 10.3867 6.6928 10.8516 7.01567 11.456L6.13361 11.9272C5.90269 11.4949 5.535 11.1301 5.09819 10.7537L5.75098 9.99617ZM14.4761 7.79137C14.6463 8.77571 13.8894 9.67724 12.8899 9.67724V8.67724C13.2676 8.67724 13.5555 8.33611 13.4907 7.96177L14.4761 7.79137ZM2.32447 1.83337C2.42195 1.83337 2.5 1.75441 2.5 1.65821H1.5C1.5 1.2032 1.86859 0.833374 2.32447 0.833374V1.83337ZM8.39473 9.90357C8.2896 9.26164 8.7844 8.67724 9.4358 8.67724V9.67724C9.40253 9.67724 9.37593 9.70737 9.3816 9.74191L8.39473 9.90357ZM4.58188 8.65351C4.56493 8.84951 4.64317 9.04151 4.79182 9.16964L4.13903 9.92717C3.74681 9.58917 3.54099 9.08317 3.5856 8.56737L4.58188 8.65351Z" fill="currentColor"/>
	</symbol>


	<symbol viewBox="0 0 17 16" id="question">
		<path fill-rule="evenodd" clip-rule="evenodd" d="M4.49992 1.97241H12.4996C13.6025 1.97241 14.5 2.86937 14.5 3.97233V9.97208C14.5 11.075 13.603 11.972 12.5001 11.972H11.0736L9.15022 13.5619C8.96973 13.7229 8.73824 13.8039 8.50425 13.8039C8.26626 13.8044 8.02677 13.7199 7.83578 13.5499L5.96136 11.972H4.49992C3.39696 11.972 2.5 11.075 2.5 9.97208V3.97233C2.5 2.86937 3.39696 1.97241 4.49992 1.97241ZM10.4317 5.4479C10.6767 6.39686 10.2172 7.38132 9.33872 7.7878C9.21922 7.8433 8.99923 8.10779 8.99923 8.37228V8.47228C8.99923 8.74876 8.77574 8.97226 8.49925 8.97226C8.22276 8.97226 7.99927 8.74876 7.99927 8.47228V8.37228C7.99927 7.68031 8.47275 7.08733 8.91824 6.88084C9.28422 6.71135 9.61071 6.26887 9.46371 5.69839C9.37872 5.37041 9.10173 5.09342 8.77424 5.00892C8.45276 4.92442 8.13877 4.98742 7.88828 5.18141C7.64129 5.37291 7.4998 5.66139 7.4998 5.97288C7.4998 6.24937 7.2763 6.47286 6.99982 6.47286C6.72333 6.47286 6.49984 6.24937 6.49984 5.97288C6.49984 5.34941 6.78233 4.77293 7.27631 4.39095C7.76928 4.00796 8.40726 3.87997 9.02473 4.04096C9.7037 4.21595 10.2567 4.76793 10.4317 5.4479ZM9.24972 10.2222C9.24972 10.6362 8.91374 10.9722 8.49975 10.9722C8.08577 10.9722 7.74979 10.6362 7.74979 10.2222C7.74979 9.80822 8.08577 9.47223 8.49975 9.47223C8.91374 9.47223 9.24972 9.80822 9.24972 10.2222Z" fill="currentColor"/>
	</symbol>

	<symbol viewBox="0 0 16 16" id="star">
		<path d="M7.37031 2.25549C7.53843 1.91484 8.0242 1.91484 8.19232 2.25549L9.82989 5.57357C9.89665 5.70884 10.0257 5.8026 10.175 5.82429L13.8367 6.35637C14.2126 6.411 14.3627 6.87298 14.0907 7.13815L11.4411 9.72091C11.333 9.8262 11.2838 9.97791 11.3093 10.1266L11.9348 13.7735C11.999 14.1479 11.606 14.4334 11.2697 14.2567L7.9946 12.5348C7.86107 12.4646 7.70156 12.4646 7.56803 12.5348L4.2929 14.2567C3.95665 14.4334 3.56366 14.1479 3.62788 13.7735L4.25338 10.1266C4.27888 9.97791 4.22958 9.8262 4.12156 9.72091L1.47192 7.13815C1.19989 6.87298 1.35 6.411 1.72593 6.35637L5.38765 5.82429C5.53693 5.8026 5.66598 5.70884 5.73274 5.57357L7.37031 2.25549Z" fill="currentColor"/>
	</symbol>
<script xmlns=""/></svg>